<svg xmlns="http://www.w3.org/2000/svg" xml:space="preserve" width="128" height="128" viewBox="0 0 33.867 33.867"><defs><linearGradient id="a" x1="96.279" x2="96.279" y1="78.012" y2="47.909" gradientUnits="userSpaceOnUse"><stop offset="0" stop-color="#ff6f55"/><stop offset="1" stop-color="#ffac55"/></linearGradient></defs><g stroke-linejoin="round" color="#000"><path fill-opacity=".6" d="M13.229 6.309c-3.784 0-6.92 3.135-6.92 6.92 0 3.784 3.136 6.921 6.92 6.921h7.408c.308 0 .488.18.488.487s-.18.488-.488.488H9.527a3.217 3.217 0 0 0-3.218 3.217 3.217 3.217 0 0 0 3.217 3.217h11.111c3.784 0 6.922-3.138 6.922-6.922s-3.138-6.92-6.922-6.92H13.23c-.307 0-.486-.181-.486-.488 0-.308.179-.487.486-.487h11.113a3.217 3.217 0 0 0 3.217-3.217 3.217 3.217 0 0 0-3.217-3.216z" style="-inkscape-stroke:none" transform="translate(1.612 1.612) scale(.9048)"/><path fill="#fff" d="M13.229 7.697c-3.034 0-5.531 2.498-5.531 5.532 0 3.033 2.497 5.533 5.531 5.533h7.408c1.058 0 1.877.817 1.877 1.875a1.85 1.85 0 0 1-1.877 1.877H9.527a1.828 1.828 0 0 0-1.829 1.828 1.828 1.828 0 0 0 1.828 1.828h11.111c3.034 0 5.533-2.5 5.533-5.533s-2.5-5.531-5.533-5.531H13.23c-1.058 0-1.875-.82-1.875-1.877s.817-1.875 1.875-1.875h11.113a1.828 1.828 0 0 0 1.828-1.829 1.828 1.828 0 0 0-1.828-1.828z" style="-inkscape-stroke:none" transform="translate(1.612 1.612) scale(.9048)"/><path fill="url(#a)" d="M96.279 46.027c-9.33 0-16.934 7.604-16.934 16.934 0 9.33 7.604 16.934 16.934 16.934 9.33 0 16.934-7.604 16.934-16.934 0-9.33-7.604-16.934-16.934-16.934zm0 3.764c7.296 0 13.17 5.874 13.17 13.17s-5.874 13.17-13.17 13.17-13.17-5.874-13.17-13.17 5.874-13.17 13.17-13.17z" style="-inkscape-stroke:none" transform="translate(-79.346 -46.027)"/></g></svg>
